# Blender v2.92.0 OBJ File: 'traverse2.blend'
# www.blender.org
mtllib traverse2.mtl
o Cube
v 0.300000 1.900000 -2.300000
v 0.300000 0.000000 -2.300000
v 0.300000 1.900000 0.000000
v 0.300000 0.000000 0.000000
v 0.000000 1.900000 -2.300000
v 0.000000 0.000000 -2.300000
v 0.000000 1.900000 0.000000
v 0.000000 0.000000 0.000000
vt 0.625000 0.500000
vt 0.875000 0.500000
vt 0.875000 0.750000
vt 0.625000 0.750000
vt 0.375000 0.750000
vt 0.625000 1.000000
vt 0.375000 1.000000
vt 0.375000 0.000000
vt 0.625000 0.000000
vt 0.625000 0.250000
vt 0.375000 0.250000
vt 0.125000 0.500000
vt 0.375000 0.500000
vt 0.125000 0.750000
vt 0.967075 0.013230
vt 0.989997 0.976834
vt 0.007758 0.996121
vt 0.013044 0.013536
vn 0.0000 1.0000 0.0000
vn 0.0000 0.0000 1.0000
vn -1.0000 0.0000 0.0000
vn 0.0000 -1.0000 0.0000
vn 0.0000 0.0000 -1.0000
vn 1.0000 0.0000 0.0000
usemtl Material
s off
f 1/1/1 5/2/1 7/3/1 3/4/1
f 4/5/2 3/4/2 7/6/2 8/7/2
f 8/8/3 7/9/3 5/10/3 6/11/3
f 6/12/4 2/13/4 4/5/4 8/14/4
f 6/11/5 5/10/5 1/1/5 2/13/5
usemtl Material.002
f 2/15/6 1/16/6 3/17/6 4/18/6
