# Blender v2.92.0 OBJ File: 'voie2.blend'
# www.blender.org
mtllib voie2.mtl
o Cube
v 0.900000 4.400000 -1.200000
v 0.900000 4.400000 0.000000
v 0.000000 4.400000 -1.200000
v 0.000000 0.000000 -1.200000
v 0.000000 4.400000 0.000000
v 0.000000 0.000000 0.000000
v 0.250000 0.000000 -1.200000
v 0.250000 0.000000 0.000000
v 0.000000 1.172283 0.000000
v 0.000000 1.172283 -1.200000
v 0.250000 1.172283 -1.200000
v 0.250000 1.172283 0.000000
vt 0.941911 0.265202
vt 0.944154 0.998838
vt 0.017180 0.992501
vt 0.043732 0.266579
vt 0.957216 0.011139
vt 0.942261 0.265038
vt 0.042372 0.266082
vt 0.023457 0.010592
vt 0.375000 0.316607
vt 0.375000 0.250000
vt 0.375000 0.250000
vt 0.441607 0.250000
vt 0.625000 0.500000
vt 0.875000 0.500000
vt 0.875000 0.750000
vt 0.625000 0.750000
vt 0.441607 0.000000
vt 0.625000 0.000000
vt 0.625000 0.250000
vt 0.441607 0.933393
vt 0.441607 1.000000
vt 0.375000 1.000000
vt 0.375000 1.000000
vt 0.125000 0.500000
vt 0.125000 0.500000
vt 0.125000 0.750000
vt 0.125000 0.750000
vt 0.625000 1.000000
vt 0.375000 0.000000
vt 0.375000 0.500000
vn 0.9803 -0.1974 0.0000
vn 1.0000 -0.0000 0.0000
vn 0.0000 0.0000 -1.0000
vn 0.0000 1.0000 0.0000
vn -1.0000 0.0000 0.0000
vn 0.0000 0.0000 1.0000
vn 0.0000 -1.0000 0.0000
usemtl Material.001
s off
f 11/1/1 1/2/1 2/3/1 12/4/1
f 7/5/2 11/6/2 12/7/2 8/8/2
usemtl Material
f 11/9/3 7/10/3 4/11/3 10/12/3
f 1/13/4 3/14/4 5/15/4 2/16/4
f 9/17/5 5/18/5 3/19/5 10/12/5
f 12/20/6 9/21/6 6/22/6 8/23/6
f 4/24/7 7/25/7 8/26/7 6/27/7
f 2/16/6 5/28/6 9/21/6 12/20/6
f 6/29/5 9/17/5 10/12/5 4/11/5
f 1/30/3 11/9/3 10/12/3 3/19/3
