# Blender v2.92.0 OBJ File: 'voie6.blend'
# www.blender.org
mtllib voie6.mtl
o Cube
v 0.250000 4.400000 -1.500000
v 0.250000 0.000000 -1.500000
v 0.250000 4.400000 0.000000
v 0.250000 0.000000 0.000000
v 0.000000 4.400000 -1.500000
v 0.000000 0.000000 -1.500000
v 0.000000 4.400000 0.000000
v 0.000000 0.000000 0.000000
v 0.000000 1.900000 -1.500000
v 0.250000 1.900000 -1.500000
v 0.000000 0.000000 -1.200000
v 0.250000 0.000000 -1.200000
v 0.250000 1.900000 -1.200000
v 0.000000 1.900000 -1.200000
vt 0.875000 0.500000
vt 0.875000 0.750000
vt 0.625000 0.750000
vt 0.625000 0.500000
vt 0.125000 0.563488
vt 0.375000 0.563488
vt 0.375000 0.750000
vt 0.125000 0.750000
vt 0.497101 0.250000
vt 0.625000 0.250000
vt 0.497101 0.500000
vt 0.375000 0.250000
vt 0.375000 0.500000
vt 0.375000 0.186512
vt 0.497101 0.186512
vt 1.060488 0.013969
vt 0.982260 0.498051
vt 0.737939 0.493426
vt 0.796153 0.011451
vt 0.125000 0.500000
vt 0.625000 1.000000
vt 0.375000 1.000000
vt 0.375000 0.000000
vt 0.625000 0.000000
vt 0.000000 1.000000
vt 0.000000 0.000000
vt 0.800000 0.000000
vt 0.800000 0.431818
vt 1.000000 0.431818
vt 1.000000 1.000000
vn 0.0000 1.0000 0.0000
vn 0.0000 -1.0000 0.0000
vn 0.0000 0.0000 -1.0000
vn -1.0000 0.0000 0.0000
vn 1.0000 0.0000 0.0000
vn 0.0000 0.0000 1.0000
usemtl Material
s off
f 5/1/1 7/2/1 3/3/1 1/4/1
f 11/5/2 12/6/2 4/7/2 8/8/2
f 9/9/3 5/10/3 1/4/3 10/11/3
f 6/12/3 9/9/3 10/11/3 2/13/3
f 11/14/4 14/15/4 9/9/4 6/12/4
f 2/16/5 10/17/5 13/18/5 12/19/5
f 6/20/2 2/13/2 12/6/2 11/5/2
f 4/7/6 3/3/6 7/21/6 8/22/6
f 5/10/4 9/9/4 14/15/4 11/14/4 8/23/4 7/24/4
usemtl Material.001
f 3/25/5 4/26/5 12/27/5 13/28/5 10/29/5 1/30/5
