# Blender v2.92.0 OBJ File: 'voie8.blend'
# www.blender.org
mtllib voie8.mtl
o Cube
v 0.300000 4.800000 -1.200000
v 0.300000 0.000000 -1.200000
v 0.300000 4.800000 0.000000
v 0.300000 0.000000 0.000000
v 0.000000 4.800000 -1.200000
v 0.000000 0.000000 -1.200000
v 0.000000 4.800000 0.000000
v 0.000000 0.000000 0.000000
v 0.680000 4.800000 -1.200000
v 0.680000 4.800000 0.000000
v 0.300000 3.900000 -1.200000
v 0.300000 3.900000 0.000000
v 0.680000 3.900000 -1.200000
v 0.680000 3.900000 0.000000
vt 0.625000 0.500000
vt 0.875000 0.500000
vt 0.875000 0.750000
vt 0.625000 0.750000
vt 0.125000 0.500000
vt 0.375000 0.500000
vt 0.375000 0.750000
vt 0.125000 0.750000
vt 0.625000 0.750000
vt 0.625000 0.500000
vt 0.021775 0.871106
vt 0.058324 0.825144
vt 0.922559 0.821300
vt 0.976605 0.869722
vt 0.978351 0.870382
vt 0.951222 0.998765
vt 0.032737 0.999289
vt 0.021058 0.871013
vt 0.058316 0.824766
vt 0.922604 0.821606
vt 0.978254 0.870421
vt 0.021864 0.870884
vt 0.921756 0.821163
vt 0.056323 0.824102
vt 0.013114 0.014296
vt 0.950481 0.014782
vn 0.0000 1.0000 0.0000
vn 0.0000 -1.0000 0.0000
vn 0.0000 0.0000 1.0000
vn -1.0000 0.0000 0.0000
vn 0.0000 0.0000 -1.0000
vn 1.0000 0.0000 0.0000
usemtl Material
s off
f 1/1/1 5/2/1 7/3/1 3/4/1
f 6/5/2 2/6/2 4/7/2 8/8/2
f 1/1/1 3/4/1 10/9/1 9/10/1
f 14/11/3 10/9/3 3/4/3 12/12/3
f 3/4/3 7/3/3 8/8/3 4/7/3 12/12/3
f 6/5/4 8/8/4 7/3/4 5/2/4
f 11/13/5 1/1/5 9/10/5 13/14/5
f 2/6/5 6/5/5 5/2/5 1/1/5 11/13/5
usemtl Material.001
f 13/15/6 9/16/6 10/17/6 14/18/6
f 12/19/2 11/20/2 13/21/2 14/22/2
f 11/23/6 12/24/6 4/25/6 2/26/6
